<?xml version="1.0" encoding="UTF-8" standalone="no"?>
<!-- Created with Inkscape (http://www.inkscape.org/) -->

<svg
   width="14.98731"
   height="15.433124"
   viewBox="0 0 14.98731 15.433124"
   version="1.1"
   id="svg1"
   xmlns="http://www.w3.org/2000/svg"
   xmlns:svg="http://www.w3.org/2000/svg">
  <defs
     id="defs1" />
  <g
     id="layer1"
     transform="translate(-0.50634474,-0.28343779)">
    <rect
       style="fill:#000000;fill-opacity:1;stroke:#000000;stroke-width:0;stroke-linecap:round;stroke-linejoin:round;stroke-dasharray:none;stroke-opacity:1;paint-order:normal"
       id="rect1"
       width="8.9132738"
       height="1.2107459"
       x="6.7457409"
       y="1.5349418"
       transform="rotate(39.648919)" />
    <path
       style="fill:none;fill-opacity:0.150809;stroke:#000000;stroke-width:1.10776;stroke-linecap:butt;stroke-linejoin:miter;stroke-dasharray:none;stroke-opacity:1;paint-order:normal"
       id="rect2"
       width="7.944972"
       height="11.368443"
       x="4.027514"
       y="1.6793056"
       d="m 4.9201888,1.6793056 6.3097992,0 a 0.74249807,0.74249807 45 0 1 0.742498,0.742498 v 8.6575134 a 1.9684313,1.9684313 135 0 1 -1.968431,1.968431 H 6.0134605 A 1.9859465,1.9859465 45 0 1 4.027514,11.061802 V 2.5719803 A 0.89267479,0.89267479 135 0 1 4.9201888,1.6793056 Z"
       transform="matrix(0.86380965,0.71584864,-0.71584864,0.86380965,6.0760974,-3.8412593)"
       ry="0" />
    <rect
       style="fill:#000000;fill-opacity:1;stroke:#f9f9f9;stroke-width:0;stroke-linecap:butt;stroke-linejoin:miter;stroke-dasharray:none;stroke-dashoffset:0;stroke-opacity:1;paint-order:normal"
       id="rect4"
       width="2.4660828"
       height="1.4079771"
       x="10.030457"
       y="-1.274259"
       ry="0.70398855"
       transform="rotate(40.932999)" />
  </g>
</svg>
